<?xml version="1.0" encoding="UTF-8" standalone="no"?>
<!-- Created with Inkscape (http://www.inkscape.org/) -->

<svg
   xmlns:dc="http://purl.org/dc/elements/1.1/"
   xmlns:cc="http://creativecommons.org/ns#"
   xmlns:rdf="http://www.w3.org/1999/02/22-rdf-syntax-ns#"
   xmlns:svg="http://www.w3.org/2000/svg"
   xmlns="http://www.w3.org/2000/svg"
   xmlns:sodipodi="http://sodipodi.sourceforge.net/DTD/sodipodi-0.dtd"
   xmlns:inkscape="http://www.inkscape.org/namespaces/inkscape"
   width="102.43078mm"
   height="67.643723mm"
   viewBox="0 0 362.9437 239.68248"
   id="svg4372"
   version="1.1"
   inkscape:version="0.91 r13725"
   sodipodi:docname="v_type_quantum_beats.svg">
  <sodipodi:namedview
     id="base"
     pagecolor="#ffffff"
     bordercolor="#666666"
     borderopacity="1.0"
     inkscape:pageopacity="0.0"
     inkscape:pageshadow="2"
     inkscape:zoom="0.7"
     inkscape:cx="-135.05902"
     inkscape:cy="162.04484"
     inkscape:document-units="px"
     inkscape:current-layer="layer1"
     showgrid="false"
     inkscape:window-width="1920"
     inkscape:window-height="1016"
     inkscape:window-x="1920"
     inkscape:window-y="27"
     inkscape:window-maximized="1"
     fit-margin-top="0"
     fit-margin-left="0"
     fit-margin-right="0"
     fit-margin-bottom="0" />
  <defs
     id="defs4374">
    <marker
       inkscape:isstock="true"
       style="overflow:visible"
       id="Arrow1Lend"
       refX="0"
       refY="0"
       orient="auto"
       inkscape:stockid="Arrow1Lend">
      <path
         transform="matrix(-0.8,0,0,-0.8,-10,0)"
         style="fill:#000000;fill-opacity:1;fill-rule:evenodd;stroke:#000000;stroke-width:1pt;stroke-opacity:1"
         d="M 0,0 5,-5 -12.5,0 5,5 0,0 Z"
         id="path5187"
         inkscape:connector-curvature="0" />
    </marker>
    <marker
       inkscape:isstock="true"
       style="overflow:visible"
       id="Arrow1Mend"
       refX="0"
       refY="0"
       orient="auto"
       inkscape:stockid="Arrow1Mend">
      <path
         transform="matrix(-0.4,0,0,-0.4,-4,0)"
         style="fill:#000000;fill-opacity:1;fill-rule:evenodd;stroke:#000000;stroke-width:1pt;stroke-opacity:1"
         d="M 0,0 5,-5 -12.5,0 5,5 0,0 Z"
         id="path5193"
         inkscape:connector-curvature="0" />
    </marker>
    <marker
       inkscape:isstock="true"
       style="overflow:visible"
       id="Arrow1Lend-3"
       refX="0"
       refY="0"
       orient="auto"
       inkscape:stockid="Arrow1Lend">
      <path
         transform="matrix(-0.8,0,0,-0.8,-10,0)"
         style="fill:#000000;fill-opacity:1;fill-rule:evenodd;stroke:#000000;stroke-width:1pt;stroke-opacity:1"
         d="M 0,0 5,-5 -12.5,0 5,5 0,0 Z"
         id="path5187-5"
         inkscape:connector-curvature="0" />
    </marker>
    <marker
       inkscape:isstock="true"
       style="overflow:visible"
       id="Arrow1Mend-2"
       refX="0"
       refY="0"
       orient="auto"
       inkscape:stockid="Arrow1Mend">
      <path
         inkscape:connector-curvature="0"
         transform="matrix(-0.4,0,0,-0.4,-4,0)"
         style="fill:#000000;fill-opacity:1;fill-rule:evenodd;stroke:#000000;stroke-width:1pt;stroke-opacity:1"
         d="M 0,0 5,-5 -12.5,0 5,5 0,0 Z"
         id="path5193-9" />
    </marker>
  </defs>
  <metadata
     id="metadata4377">
    <rdf:RDF>
      <cc:Work
         rdf:about="">
        <dc:format>image/svg+xml</dc:format>
        <dc:type
           rdf:resource="http://purl.org/dc/dcmitype/StillImage" />
        <dc:title></dc:title>
      </cc:Work>
    </rdf:RDF>
  </metadata>
  <g
     inkscape:label="Layer 1"
     inkscape:groupmode="layer"
     id="layer1"
     transform="translate(-76.222141,-254.10576)">
    <path
       style="fill:none;fill-rule:evenodd;stroke:#000000;stroke-width:1.5;stroke-linecap:butt;stroke-linejoin:miter;stroke-miterlimit:4;stroke-dasharray:none;stroke-opacity:1"
       d="m 83.842661,270.50413 121.218309,0"
       id="path4922"
       inkscape:connector-curvature="0" />
    <path
       style="fill:none;fill-rule:evenodd;stroke:#000000;stroke-width:1.5;stroke-linecap:butt;stroke-linejoin:miter;stroke-miterlimit:4;stroke-dasharray:none;stroke-opacity:1"
       d="m 277.79194,307.87979 121.21831,0"
       id="path4922-7"
       inkscape:connector-curvature="0" />
    <path
       style="fill:none;fill-rule:evenodd;stroke:#000000;stroke-width:1.5;stroke-linecap:butt;stroke-linejoin:miter;stroke-miterlimit:4;stroke-dasharray:none;stroke-opacity:1"
       d="m 83.84266,418.99655 121.21831,0"
       id="path4922-5"
       inkscape:connector-curvature="0" />
    <g
       id="g4986"
       transform="matrix(0.61941814,0,0,0.61941814,27.277946,57.141036)"
       inkscape:transform-center-x="-3.0304576"
       inkscape:transform-center-y="-5.0507406">
      <g
         word-spacing="normal"
         letter-spacing="normal"
         font-size-adjust="none"
         font-stretch="normal"
         font-weight="normal"
         font-variant="normal"
         font-style="normal"
         stroke-miterlimit="10.433"
         xml:space="preserve"
         transform="matrix(1.0629921,0,0,-1.0629921,-186.02362,789.27165)"
         id="g4988"
         style="font-style:normal;font-variant:normal;font-weight:normal;font-stretch:normal;letter-spacing:normal;word-spacing:normal;text-anchor:start;fill:none;fill-opacity:1;fill-rule:evenodd;stroke:#000000;stroke-linecap:butt;stroke-linejoin:miter;stroke-miterlimit:10.43299961;stroke-dasharray:none;stroke-dashoffset:0;stroke-opacity:1"><path
           id="path4990"
           d="m 463.92,441.57 0,0.16 0,0.17 0,0.17 -0.01,0.08 0,0.08 -0.01,0.07 -0.01,0.08 -0.01,0.08 -0.01,0.07 -0.01,0.07 -0.02,0.07 -0.02,0.07 -0.02,0.06 -0.03,0.06 -0.03,0.06 -0.03,0.06 -0.03,0.05 -0.04,0.05 -0.04,0.04 -0.05,0.05 -0.05,0.04 -0.05,0.03 -0.03,0.02 -0.03,0.01 -0.03,0.01 -0.04,0.02 -0.03,0.01 -0.04,0.01 -0.03,0.01 -0.04,0.01 -0.04,0 -0.04,0.01 -0.04,0 -0.04,0.01 -0.05,0 -0.04,0 c -1,0 -1,-0.9 -1,-1.79 l 0,-46.23 c 0,-0.89 0,-1.79 1,-1.79 0.99,0 0.99,0.9 0.99,1.79 z"
           inkscape:connector-curvature="0"
           style="fill:#000000;stroke-width:0" /><path
           id="path4992"
           d="m 487.58,424.83 -0.08,0.17 -0.09,0.17 -0.1,0.16 -0.09,0.16 -0.1,0.16 -0.1,0.16 -0.11,0.15 -0.11,0.14 -0.11,0.15 -0.12,0.13 -0.12,0.14 -0.12,0.13 -0.13,0.12 -0.13,0.12 -0.14,0.11 -0.14,0.11 -0.14,0.11 -0.15,0.09 -0.15,0.1 -0.15,0.08 -0.16,0.08 -0.17,0.08 -0.17,0.07 -0.17,0.06 -0.17,0.05 -0.19,0.05 -0.18,0.04 -0.19,0.03 -0.19,0.03 -0.2,0.02 -0.21,0.01 -0.2,0.01 0.05,-1.1 c 3.24,0 3.93,-4.08 3.93,-4.38 0,-0.3 -0.1,-0.6 -0.15,-0.85 l -2.49,-9.76 c -0.25,-0.9 -0.25,-1 -0.99,-1.84 -2.19,-2.75 -4.24,-3.54 -5.63,-3.54 -2.49,0 -3.19,2.74 -3.19,4.68 0,2.49 1.59,8.62 2.74,10.91 1.54,2.94 3.78,4.78 5.78,4.78 l -0.05,1.1 c -5.83,0 -12.01,-7.32 -12.01,-14.6 0,-4.68 2.74,-7.97 6.63,-7.97 0.99,0 3.49,0.2 6.47,3.74 0.4,-2.09 2.14,-3.74 4.53,-3.74 1.75,0 2.9,1.15 3.69,2.74 0.85,1.79 1.5,4.83 1.5,4.93 0,0.5 -0.45,0.5 -0.6,0.5 -0.5,0 -0.55,-0.2 -0.7,-0.89 -0.85,-3.24 -1.74,-6.18 -3.78,-6.18 -1.35,0 -1.5,1.29 -1.5,2.29 0,1.09 0.1,1.49 0.65,3.69 0.55,2.09 0.65,2.59 1.1,4.48 l 1.79,6.97 c 0.35,1.4 0.35,1.5 0.35,1.7 0,0.84 -0.6,1.34 -1.45,1.34 -1.19,0 -1.94,-1.09 -2.09,-2.19 z"
           inkscape:connector-curvature="0"
           style="fill:#000000;stroke-width:0" /><path
           id="path4994"
           d="m 509.6,417.61 0,1.69 -8.72,22.91 c -0.3,0.85 -0.59,1.15 -1.15,1.15 -0.54,0 -0.99,-0.45 -0.99,-1 0,-0.15 0,-0.25 0.25,-0.79 l 8.81,-23.12 -8.81,-23.01 c -0.25,-0.55 -0.25,-0.65 -0.25,-0.9 0,-0.54 0.45,-0.99 0.99,-0.99 0.65,0 0.85,0.49 1.05,0.99 z"
           inkscape:connector-curvature="0"
           style="fill:#000000;stroke-width:0" /></g>    </g>
    <g
       id="g5025"
       transform="matrix(0.61941814,0,0,0.61941814,222.14513,94.516691)">
      <g
         id="content"
         transform="matrix(1.0629921,0,0,-1.0629921,-186.02362,789.27165)"
         xml:space="preserve"
         stroke-miterlimit="10.433"
         font-style="normal"
         font-variant="normal"
         font-weight="normal"
         font-stretch="normal"
         font-size-adjust="none"
         letter-spacing="normal"
         word-spacing="normal"
         style="font-style:normal;font-variant:normal;font-weight:normal;font-stretch:normal;letter-spacing:normal;word-spacing:normal;text-anchor:start;fill:none;fill-opacity:1;fill-rule:evenodd;stroke:#000000;stroke-linecap:butt;stroke-linejoin:miter;stroke-miterlimit:10.43299961;stroke-dasharray:none;stroke-dashoffset:0;stroke-opacity:1"><path
           d="m 463.92,441.57 0,0.16 0,0.17 0,0.17 -0.01,0.08 0,0.08 -0.01,0.07 -0.01,0.08 -0.01,0.08 -0.01,0.07 -0.01,0.07 -0.02,0.07 -0.02,0.07 -0.02,0.06 -0.03,0.06 -0.03,0.06 -0.03,0.06 -0.03,0.05 -0.04,0.05 -0.04,0.04 -0.05,0.05 -0.05,0.04 -0.05,0.03 -0.03,0.02 -0.03,0.01 -0.03,0.01 -0.04,0.02 -0.03,0.01 -0.04,0.01 -0.03,0.01 -0.04,0.01 -0.04,0 -0.04,0.01 -0.04,0 -0.04,0.01 -0.05,0 -0.04,0 c -1,0 -1,-0.9 -1,-1.79 l 0,-46.23 c 0,-0.89 0,-1.79 1,-1.79 0.99,0 0.99,0.9 0.99,1.79 z"
           id="path5028"
           inkscape:connector-curvature="0"
           style="fill:#000000;stroke-width:0" /><path
           d="m 480.91,440.02 0,0.01 0,0 0,0.01 0,0.01 -0.01,0.01 0,0.01 0,0.02 0,0.02 0,0.02 -0.01,0.02 0,0.02 -0.01,0.02 -0.01,0.03 -0.01,0.02 -0.01,0.03 -0.01,0.02 -0.01,0.02 -0.02,0.03 -0.02,0.02 -0.02,0.03 -0.02,0.02 -0.01,0.01 -0.02,0.01 -0.01,0.01 -0.01,0.01 -0.02,0.01 -0.01,0.01 -0.02,0.01 -0.02,0.01 -0.01,0.01 -0.02,0.01 -0.02,0.01 -0.02,0 -0.02,0.01 -0.02,0.01 -0.03,0 -0.02,0.01 -0.02,0 -0.03,0.01 -0.02,0 -0.03,0 -0.03,0.01 -0.02,0 -0.03,0 -0.03,0 c -1.15,0 -4.78,-0.4 -6.08,-0.5 -0.4,-0.05 -0.95,-0.1 -0.95,-1 0,-0.59 0.45,-0.59 1.2,-0.59 2.39,0 2.49,-0.35 2.49,-0.85 0,-0.35 -0.45,-2.04 -0.7,-3.09 l -4.08,-16.24 c -0.6,-2.49 -0.8,-3.28 -0.8,-5.03 0,-4.73 2.64,-7.82 6.33,-7.82 l 0,1.1 c -1.7,0 -3.34,1.34 -3.34,5.03 0,0.95 0,1.89 0.8,5.03 l 1.09,4.58 c 0.3,1.1 0.3,1.2 0.75,1.75 2.44,3.24 4.68,3.98 5.98,3.98 1.79,0 3.14,-1.49 3.14,-4.68 0,-2.94 -1.65,-8.67 -2.54,-10.56 -1.65,-3.34 -3.94,-5.13 -5.88,-5.13 l 0,-1.1 c 5.88,0 12,7.43 12,14.6 0,4.53 -2.64,7.97 -6.62,7.97 -2.29,0 -4.34,-1.45 -5.83,-2.99 z"
           id="path5030"
           inkscape:connector-curvature="0"
           style="fill:#000000;stroke-width:0" /><path
           d="m 504.6,417.61 0,1.69 -8.72,22.91 c -0.3,0.85 -0.59,1.15 -1.15,1.15 -0.54,0 -0.99,-0.45 -0.99,-1 0,-0.15 0,-0.25 0.25,-0.79 l 8.81,-23.12 -8.81,-23.01 c -0.25,-0.55 -0.25,-0.65 -0.25,-0.9 0,-0.54 0.45,-0.99 0.99,-0.99 0.65,0 0.85,0.49 1.05,0.99 z"
           id="path5032"
           inkscape:connector-curvature="0"
           style="fill:#000000;stroke-width:0" /></g>    </g>
    <g
       id="g5068"
       transform="matrix(0.61941814,0,0,0.61941814,27.277946,205.9481)">
      <g
         word-spacing="normal"
         letter-spacing="normal"
         font-size-adjust="none"
         font-stretch="normal"
         font-weight="normal"
         font-variant="normal"
         font-style="normal"
         stroke-miterlimit="10.433"
         xml:space="preserve"
         transform="matrix(1.0629921,0,0,-1.0629921,-186.02362,789.27165)"
         id="g5070"
         style="font-style:normal;font-variant:normal;font-weight:normal;font-stretch:normal;letter-spacing:normal;word-spacing:normal;text-anchor:start;fill:none;fill-opacity:1;fill-rule:evenodd;stroke:#000000;stroke-linecap:butt;stroke-linejoin:miter;stroke-miterlimit:10.43299961;stroke-dasharray:none;stroke-dashoffset:0;stroke-opacity:1"><path
           id="path5072"
           d="m 463.92,441.57 0,0.16 0,0.17 0,0.17 -0.01,0.08 0,0.08 -0.01,0.07 -0.01,0.08 -0.01,0.08 -0.01,0.07 -0.01,0.07 -0.02,0.07 -0.02,0.07 -0.02,0.06 -0.03,0.06 -0.03,0.06 -0.03,0.06 -0.03,0.05 -0.04,0.05 -0.04,0.04 -0.05,0.05 -0.05,0.04 -0.05,0.03 -0.03,0.02 -0.03,0.01 -0.03,0.01 -0.04,0.02 -0.03,0.01 -0.04,0.01 -0.03,0.01 -0.04,0.01 -0.04,0 -0.04,0.01 -0.04,0 -0.04,0.01 -0.05,0 -0.04,0 c -1,0 -1,-0.9 -1,-1.79 l 0,-46.23 c 0,-0.89 0,-1.79 1,-1.79 0.99,0 0.99,0.9 0.99,1.79 z"
           inkscape:connector-curvature="0"
           style="fill:#000000;stroke-width:0" /><path
           id="path5074"
           d="m 488.73,424.93 -0.15,0 -0.15,0 -0.14,0 -0.14,-0.01 -0.14,-0.01 -0.14,-0.02 -0.07,-0.01 -0.07,-0.01 -0.07,-0.01 -0.07,-0.02 -0.06,-0.01 -0.07,-0.02 -0.07,-0.03 -0.07,-0.02 -0.06,-0.03 -0.07,-0.03 -0.07,-0.03 -0.06,-0.04 -0.07,-0.03 -0.06,-0.05 -0.07,-0.04 -0.06,-0.05 -0.07,-0.05 -0.06,-0.06 -0.07,-0.06 -0.06,-0.06 c -0.8,-0.75 -0.9,-1.59 -0.9,-1.94 0,-1.2 0.9,-1.74 1.84,-1.74 1.45,0 2.79,1.19 2.79,3.18 0,2.45 -2.34,4.29 -5.88,4.29 -6.72,0 -13.35,-7.13 -13.35,-14.15 0,-4.48 2.89,-8.42 8.07,-8.42 7.12,0 11.31,5.28 11.31,5.88 0,0.3 -0.3,0.65 -0.6,0.65 -0.25,0 -0.35,-0.1 -0.64,-0.5 -3.94,-4.93 -9.37,-4.93 -9.97,-4.93 -3.14,0 -4.48,2.44 -4.48,5.43 0,2.04 1,6.87 2.69,9.96 1.54,2.84 4.28,4.98 7.02,4.98 1.7,0 3.59,-0.65 4.29,-1.99 z"
           inkscape:connector-curvature="0"
           style="fill:#000000;stroke-width:0" /><path
           id="path5076"
           d="m 504.6,417.61 0,1.69 -8.72,22.91 c -0.3,0.85 -0.59,1.15 -1.15,1.15 -0.54,0 -0.99,-0.45 -0.99,-1 0,-0.15 0,-0.25 0.25,-0.79 l 8.81,-23.12 -8.81,-23.01 c -0.25,-0.55 -0.25,-0.65 -0.25,-0.9 0,-0.54 0.45,-0.99 0.99,-0.99 0.65,0 0.85,0.49 1.05,0.99 z"
           inkscape:connector-curvature="0"
           style="fill:#000000;stroke-width:0" /></g>    </g>
    <path
       id="path8772"
       title="t cos(30*t)"
       d="m 146.78134,271.27236 c -8.4e-4,1.10975 -0.85576,2.21949 -2.37955,3.32923 -1.5238,1.10975 -3.7076,2.21949 -6.07465,3.32923 -2.36706,1.10974 -4.90162,2.21948 -7.05351,3.32922 -2.1519,1.10974 -3.9039,2.21948 -4.87845,3.32922 -0.97453,1.10974 -1.16058,2.21948 -0.52199,3.32923 0.63858,1.10974 2.10167,2.21948 4.06785,3.32922 1.96615,1.10974 4.42418,2.21948 6.83877,3.32922 2.41458,1.10974 4.76844,2.21949 6.55178,3.32923 1.78335,1.10974 2.98054,2.21948 3.33523,3.32922 0.3547,1.10974 -0.14012,2.21948 -1.37268,3.32923 -1.23256,1.10974 -3.19811,2.21948 -5.46678,3.32922 -2.26869,1.10974 -4.82609,2.21948 -7.11647,3.32922 -2.29037,1.10974 -4.29612,2.21948 -5.58406,3.32922 -1.28794,1.10974 -1.84515,2.21949 -1.55477,3.32923 0.29038,1.10974 1.43085,2.21948 3.16973,3.32923 1.73886,1.10974 4.06705,2.21948 6.47688,3.32922 2.40982,1.10974 4.88471,2.21948 6.88796,3.32922 2.00325,1.10974 3.51819,2.21948 4.21912,3.32922 0.70093,1.10974 0.57854,2.21948 -0.33627,3.32922 -0.9148,1.10974 -2.61981,2.21949 -4.74129,3.32923 -2.12149,1.10974 -4.64673,2.21948 -7.02629,3.32922 -2.37957,1.10975 -4.59589,2.21949 -6.16952,3.32923 -1.57363,1.10974 -2.49002,2.21948 -2.55408,3.32922 -0.064,1.10974 0.72923,2.21948 2.20339,3.32922 1.47415,1.10974 3.62242,2.21949 5.97563,3.32923 2.35321,1.10974 4.89585,2.21948 7.0759,3.32922 2.18005,1.10974 3.98015,2.21948 5.01224,3.32922 1.03209,1.10975 1.28474,2.21949 0.70738,3.32923 -0.57738,1.10974 -1.98513,2.21948 -3.91379,3.32922 -1.92864,1.10974 -4.36737,2.21949 -6.78492,3.32923 -2.41755,1.10974 -4.79675,2.21948 -6.62221,3.32922 -1.82547,1.10974 -3.08132,2.21948 -3.49845,3.32922 -0.41713,1.10974 0.012,2.21948 1.18965,3.32922 1.17772,1.10974 3.09983,2.21949 5.34579,3.32923 2.24596,1.10974 4.80167,2.21949 7.1116,3.32923 2.30994,1.10974 4.35647,2.21948 5.6975,3.32922 1.34102,1.10974 1.9633,2.21948 1.7358,3.32922 -0.2275,1.10974 -1.30774,2.21948 -3.00205,3.32922 -1.69432,1.10974 -3.99403,2.21948 -6.39756,3.32922 -2.40352,1.10975 -4.89441,2.21949 -6.93243,3.32923 -2.03801,1.10974 -3.60631,2.21948 -4.36752,3.32923 -0.76121,1.10974 -0.57171,4.94269 0.28424,6.05243 0.85595,1.10974 -1.62387,-2.77641 -1.11336,-0.46542 0.92282,4.17744 0.8095,2.71055 0.92282,4.17744"
       style="opacity:1;fill:none;fill-opacity:0.40236691;stroke:#000000;stroke-width:1.1328944;stroke-miterlimit:4;stroke-dasharray:none;stroke-dashoffset:0;stroke-opacity:1;marker-end:url(#Arrow1Mend)"
       inkscape:connector-curvature="0"
       sodipodi:nodetypes="csssssssssssssssssssssscsssscsssscssssssssssc" />
    <path
       id="path8772-1"
       title="t cos(30*t)"
       d="m 280.3985,308.8487 c -0.6353,0.90992 -1.97124,1.33142 -3.8559,1.37044 -1.88468,0.039 -4.31078,-0.2994 -6.88721,-0.7426 -2.57644,-0.4432 -5.2903,-0.9822 -7.69022,-1.30237 -2.39995,-0.32016 -4.47181,-0.41165 -5.90589,-0.0586 -1.43407,0.35311 -2.22131,1.15711 -2.33204,2.43268 -0.11073,1.27555 0.45493,3.02261 1.43331,5.05735 0.97835,2.03472 2.36022,4.35072 3.70645,6.64188 1.34623,2.29115 2.64264,4.54759 3.47102,6.47778 0.82839,1.93019 1.17592,3.52519 0.83229,4.6384 -0.34362,1.11322 -1.38415,1.74065 -3.0299,1.94621 -1.64575,0.20555 -3.89281,-0.008 -6.38853,-0.395 -2.49575,-0.38695 -5.22835,-0.93901 -7.74188,-1.33836 -2.51353,-0.39936 -4.79357,-0.63594 -6.48475,-0.46207 -1.69117,0.17394 -2.7829,0.76564 -3.17928,1.84208 -0.39638,1.07644 -0.0954,2.63901 0.69652,4.54377 0.79189,1.90475 2.06724,4.1465 3.40957,6.43495 1.34233,2.28843 2.73802,4.61408 3.74682,6.67001 1.00878,2.05594 1.61698,3.83264 1.55739,5.14385 -0.0596,1.31121 -0.79458,2.15161 -2.17966,2.53886 -1.38507,0.38727 -3.4184,0.32266 -5.79338,0.0199 -2.37499,-0.30278 -5.08119,-0.83644 -7.66789,-1.28679 -2.58672,-0.45036 -5.0395,-0.80737 -6.96504,-0.79685 -1.92555,0.0105 -3.31192,0.39686 -3.99907,1.27062 -0.6871,0.87378 -0.67097,2.23778 -0.0962,3.99115 0.57473,1.75338 1.70248,3.89226 2.99837,6.14832 1.29588,2.25607 2.74716,4.62045 3.90099,6.77749 1.15382,2.15704 1.99595,4.09681 2.20804,5.59739 0.21208,1.5006 -0.21525,2.55546 -1.3235,3.13568 -1.10826,0.58021 -2.89773,0.68559 -5.11452,0.49308 -2.21678,-0.1925 -4.85203,-0.67668 -7.4699,-1.14876 -2.61786,-0.47208 -5.20426,-0.92223 -7.3364,-1.05573 -2.13214,-0.1335 -3.79699,0.0587 -4.77379,0.73059 -0.97679,0.67185 -1.25936,1.82764 -0.92786,3.41146 0.33155,1.58386 1.27377,3.59341 2.48167,5.78813 1.20789,2.19474 2.66989,4.56661 3.93027,6.79792 1.26039,2.23131 2.30468,4.312 2.7702,5.98925 0.46553,1.67724 0.34142,2.94348 -0.47982,3.72377 -0.82123,0.7803 -2.34202,1.07295 -4.36657,1.01445 -2.02455,-0.0585 -4.54574,-0.46319 -7.1521,-0.92725 -2.60637,-0.46405 -5.28439,-0.97806 -7.5909,-1.23311 -2.30651,-0.25505 -4.22768,-0.24149 -5.48675,0.23359 -1.25907,0.4751 -3.29548,3.72786 -3.22788,5.12772 0.0674,1.39987 0.25552,-3.20626 -0.64722,-1.01848 -1.6318,3.95472 -0.88593,2.68654 -1.6318,3.95472"
       style="opacity:1;fill:none;fill-opacity:0.40236691;stroke:#000000;stroke-width:1.1328944;stroke-miterlimit:4;stroke-dasharray:none;stroke-dashoffset:0;stroke-opacity:1;marker-end:url(#Arrow1Mend-2)"
       inkscape:connector-curvature="0"
       sodipodi:nodetypes="csssssssssssssssssssssscsssscsssscssssssssssc" />
    <g
       id="g12818"
       transform="matrix(0.60954952,0,0,0.60954952,-97.27545,131.02867)">
      <g
         id="g12820"
         transform="matrix(1.0629921,0,0,-1.0629921,-186.02362,789.27165)"
         xml:space="preserve"
         stroke-miterlimit="10.433"
         font-style="normal"
         font-variant="normal"
         font-weight="normal"
         font-stretch="normal"
         font-size-adjust="none"
         letter-spacing="normal"
         word-spacing="normal"
         style="font-style:normal;font-variant:normal;font-weight:normal;font-stretch:normal;letter-spacing:normal;word-spacing:normal;text-anchor:start;fill:none;fill-opacity:1;fill-rule:evenodd;stroke:#000000;stroke-linecap:butt;stroke-linejoin:miter;stroke-miterlimit:10.43299961;stroke-dasharray:none;stroke-dashoffset:0;stroke-opacity:1"><path
           d="m 486.14,424.53 -0.01,0.21 0,0.2 -0.02,0.2 -0.01,0.18 -0.03,0.19 -0.02,0.18 -0.03,0.17 -0.04,0.16 -0.04,0.16 -0.04,0.15 -0.05,0.15 -0.05,0.14 -0.06,0.13 -0.06,0.13 -0.06,0.12 -0.07,0.11 -0.07,0.11 -0.07,0.1 -0.07,0.1 -0.08,0.08 -0.08,0.09 -0.09,0.07 -0.08,0.07 -0.09,0.06 -0.09,0.05 -0.09,0.05 -0.1,0.04 -0.09,0.03 -0.1,0.02 -0.1,0.02 -0.1,0.01 -0.11,0.01 c -1.29,0 -2.64,-1.2 -2.64,-2.34 0,-0.5 0.25,-1.05 0.75,-1.5 0.85,-0.75 1.75,-2.09 1.75,-4.18 0,-2 -0.95,-4.84 -2.5,-7.12 -1.49,-2.15 -3.33,-3.84 -5.68,-3.84 -2.84,0 -4.38,1.79 -4.83,4.48 0.55,1.3 1.7,4.48 1.7,5.88 0,0.6 -0.25,1.1 -0.9,1.1 -0.4,0 -0.95,-0.11 -1.34,-0.85 -0.55,-1 -1.15,-4.24 -1.15,-6.03 -1.64,-2.34 -3.64,-4.58 -6.77,-4.58 -3.29,0 -4.34,2.94 -4.34,5.73 0,6.22 5.08,11.45 5.08,12.1 0,0.55 -0.39,0.95 -0.94,0.95 -0.65,0 -1,-0.65 -1.3,-1.1 -2.54,-3.68 -4.43,-9.61 -4.43,-14.15 0,-3.43 1.14,-7.12 5.23,-7.12 3.53,0 5.88,2.49 7.67,5.23 0.45,-2.89 2.39,-5.23 5.48,-5.23 3.88,0 6.27,3.04 8.07,6.78 1.19,2.44 3.09,9.21 3.09,12.3 z"
           id="path12822"
           inkscape:connector-curvature="0"
           style="fill:#000000;stroke-width:0" /><path
           d="m 500.71,412.32 -0.06,0.11 -0.08,0.1 -0.07,0.11 -0.08,0.1 -0.08,0.1 -0.08,0.1 -0.09,0.09 -0.09,0.1 -0.09,0.09 -0.09,0.09 -0.1,0.08 -0.1,0.09 -0.1,0.08 -0.11,0.07 -0.11,0.08 -0.11,0.07 -0.11,0.07 -0.12,0.06 -0.12,0.06 -0.12,0.06 -0.12,0.05 -0.13,0.05 -0.13,0.05 -0.13,0.04 -0.14,0.04 -0.14,0.03 -0.14,0.02 -0.14,0.03 -0.15,0.02 -0.15,0.01 -0.15,0.01 -0.16,0 0,-0.98 c 2.44,0 3.11,-2.65 3.11,-3.03 0,-0.14 -0.07,-0.39 -0.11,-0.49 l -1.64,-6.52 c -0.24,-0.98 -1.01,-1.68 -1.78,-2.34 -0.31,-0.28 -1.7,-1.39 -3.2,-1.39 -1.29,0 -2.55,0.91 -2.55,3.38 0,1.85 1.01,5.69 1.82,7.08 1.6,2.79 3.38,3.31 4.35,3.31 l 0,0.98 c -4.46,0 -8.99,-4.92 -8.99,-9.94 0,-3.38 2.26,-5.79 5.26,-5.79 1.88,0 3.56,1.08 4.95,2.44 0.67,-2.09 2.69,-2.44 3.59,-2.44 1.26,0 2.13,0.77 2.76,1.85 0.77,1.36 1.22,3.35 1.22,3.48 0,0.46 -0.45,0.46 -0.56,0.46 -0.49,0 -0.52,-0.14 -0.76,-1.08 -0.42,-1.68 -1.09,-3.73 -2.55,-3.73 -0.91,0 -1.15,0.76 -1.15,1.71 0,0.59 0.28,1.84 0.52,2.75 0.25,0.94 0.59,2.37 0.77,3.14 l 0.7,2.65 c 0.21,0.91 0.62,2.55 0.62,2.72 0,0.77 -0.62,1.11 -1.18,1.11 -0.59,0 -1.39,-0.41 -1.61,-1.39 z"
           id="path12824"
           inkscape:connector-curvature="0"
           style="fill:#000000;stroke-width:0" /></g>    </g>
    <g
       id="g12898"
       transform="matrix(0.60954952,0,0,0.60954952,16.243217,131.02867)">
      <g
         word-spacing="normal"
         letter-spacing="normal"
         font-size-adjust="none"
         font-stretch="normal"
         font-weight="normal"
         font-variant="normal"
         font-style="normal"
         stroke-miterlimit="10.433"
         xml:space="preserve"
         transform="matrix(1.0629921,0,0,-1.0629921,-186.02362,789.27165)"
         id="g12900"
         style="font-style:normal;font-variant:normal;font-weight:normal;font-stretch:normal;letter-spacing:normal;word-spacing:normal;text-anchor:start;fill:none;fill-opacity:1;fill-rule:evenodd;stroke:#000000;stroke-linecap:butt;stroke-linejoin:miter;stroke-miterlimit:10.43299961;stroke-dasharray:none;stroke-dashoffset:0;stroke-opacity:1"><path
           id="path12902"
           d="m 486.14,424.53 -0.01,0.21 0,0.2 -0.02,0.2 -0.01,0.18 -0.03,0.19 -0.02,0.18 -0.03,0.17 -0.04,0.16 -0.04,0.16 -0.04,0.15 -0.05,0.15 -0.05,0.14 -0.06,0.13 -0.06,0.13 -0.06,0.12 -0.07,0.11 -0.07,0.11 -0.07,0.1 -0.07,0.1 -0.08,0.08 -0.08,0.09 -0.09,0.07 -0.08,0.07 -0.09,0.06 -0.09,0.05 -0.09,0.05 -0.1,0.04 -0.09,0.03 -0.1,0.02 -0.1,0.02 -0.1,0.01 -0.11,0.01 c -1.29,0 -2.64,-1.2 -2.64,-2.34 0,-0.5 0.25,-1.05 0.75,-1.5 0.85,-0.75 1.75,-2.09 1.75,-4.18 0,-2 -0.95,-4.84 -2.5,-7.12 -1.49,-2.15 -3.33,-3.84 -5.68,-3.84 -2.84,0 -4.38,1.79 -4.83,4.48 0.55,1.3 1.7,4.48 1.7,5.88 0,0.6 -0.25,1.1 -0.9,1.1 -0.4,0 -0.95,-0.11 -1.34,-0.85 -0.55,-1 -1.15,-4.24 -1.15,-6.03 -1.64,-2.34 -3.64,-4.58 -6.77,-4.58 -3.29,0 -4.34,2.94 -4.34,5.73 0,6.22 5.08,11.45 5.08,12.1 0,0.55 -0.39,0.95 -0.94,0.95 -0.65,0 -1,-0.65 -1.3,-1.1 -2.54,-3.68 -4.43,-9.61 -4.43,-14.15 0,-3.43 1.14,-7.12 5.23,-7.12 3.53,0 5.88,2.49 7.67,5.23 0.45,-2.89 2.39,-5.23 5.48,-5.23 3.88,0 6.27,3.04 8.07,6.78 1.19,2.44 3.09,9.21 3.09,12.3 z"
           inkscape:connector-curvature="0"
           style="fill:#000000;stroke-width:0" /><path
           id="path12904"
           d="m 495.21,422.15 0,0.01 0,0 0,0 0,0.01 0.01,0.01 0,0 0,0.01 0,0 0.01,0.02 0,0.02 0.01,0.02 0,0.01 0.01,0.02 0,0.03 0.01,0.02 0.01,0.02 0,0.02 0.01,0.03 0.01,0.04 0.01,0.05 0,0.03 0.01,0.02 0,0.02 0.01,0.02 0,0.02 0.01,0.02 0,0.02 0,0.01 0.01,0.01 0,0.01 0,0 0,0.01 0,0.01 0,0 0,0.01 0,0 0,0 0,0.01 0,0 0,0 c 0,0.18 -0.13,0.49 -0.55,0.49 -0.7,0 -3.59,-0.28 -4.47,-0.35 -0.28,-0.03 -0.76,-0.07 -0.76,-0.8 0,-0.49 0.48,-0.49 0.9,-0.49 1.68,0 1.68,-0.24 1.68,-0.52 0,-0.25 -0.35,-1.64 -0.56,-2.44 l -0.8,-3.21 c -0.32,-1.19 -2.23,-8.82 -2.3,-9.28 -0.18,-0.83 -0.18,-1.29 -0.18,-1.7 0,-3.53 2.23,-5.76 5.13,-5.76 l 0.03,0.98 c -1.71,0 -2.68,1.5 -2.68,3.55 0,1.29 0.31,2.48 1.29,6.42 0.21,0.66 0.21,0.73 0.87,1.5 1.33,1.53 2.89,2.3 4.15,2.3 1.36,0 2.54,-1.01 2.54,-3.38 0,-1.43 -0.76,-4.99 -1.81,-7.01 -0.84,-1.71 -2.58,-3.38 -4.36,-3.38 l 0,0 -0.03,-0.98 c 4.36,0 8.99,4.74 8.99,9.9 0,4.08 -2.82,5.83 -5.23,5.83 -1.81,0 -3.35,-1.01 -4.39,-1.92 z"
           inkscape:connector-curvature="0"
           style="fill:#000000;stroke-width:0" /></g>    </g>
    <g
       id="g13170"
       transform="matrix(0.51434507,0,0,0.51434507,-78.342595,303.00165)">
      <g
         word-spacing="normal"
         letter-spacing="normal"
         font-size-adjust="none"
         font-stretch="normal"
         font-weight="normal"
         font-variant="normal"
         font-style="normal"
         stroke-miterlimit="10.433"
         xml:space="preserve"
         transform="matrix(1.0629921,0,0,-1.0629921,-186.02362,789.27165)"
         id="g13172"
         style="font-style:normal;font-variant:normal;font-weight:normal;font-stretch:normal;letter-spacing:normal;word-spacing:normal;text-anchor:start;fill:none;fill-opacity:1;fill-rule:evenodd;stroke:#000000;stroke-linecap:butt;stroke-linejoin:miter;stroke-miterlimit:10.43299961;stroke-dasharray:none;stroke-dashoffset:0;stroke-opacity:1"><path
           id="path13174"
           d="m 474.63,436.19 0.04,0.16 0.04,0.16 0.04,0.15 0.04,0.14 0.04,0.14 0.05,0.12 0.04,0.13 0.05,0.11 0.06,0.11 0.06,0.1 0.06,0.1 0.07,0.09 0.08,0.08 0.09,0.08 0.09,0.08 0.11,0.06 0.11,0.07 0.13,0.05 0.14,0.06 0.15,0.05 0.16,0.04 0.09,0.02 0.09,0.02 0.09,0.01 0.1,0.02 0.1,0.02 0.11,0.01 0.11,0.01 0.11,0.02 0.12,0.01 0.12,0.01 0.13,0.01 0.13,0.01 0.14,0.01 0.14,0 0.14,0.01 0.15,0 0.16,0.01 0.16,0 0.16,0 0.18,0.01 0.17,0 0.18,0 c 1.2,0 1.6,0 1.6,0.95 0,0.59 -0.55,0.59 -0.75,0.59 l -13.2,0 c -0.35,0 -1,0 -1,-0.99 0,-0.55 0.45,-0.55 1.4,-0.55 2.09,0 3.43,0 3.43,-0.95 0,-0.25 0,-0.35 -0.09,-0.8 l -6.73,-26.84 c -0.45,-1.85 -0.6,-2.35 -4.53,-2.35 -1.15,0 -1.59,0 -1.59,-0.99 0,-0.55 0.59,-0.55 0.74,-0.55 l 13.2,0 c 0.4,0 1,0 1,0.95 0,0.59 -0.4,0.59 -1.5,0.59 -0.89,0 -1.14,0 -2.14,0.1 -1.04,0.1 -1.24,0.3 -1.24,0.85 0,0.4 0.1,0.8 0.2,1.15 z"
           inkscape:connector-curvature="0"
           style="fill:#000000;stroke-width:0" /><path
           id="path13176"
           d="m 529.22,422.29 0.14,0 0.15,0 0.15,0.01 0.07,0 0.07,0 0.07,0.01 0.08,0.01 0.07,0.01 0.07,0.01 0.06,0.02 0.07,0.01 0.07,0.02 0.06,0.02 0.06,0.03 0.06,0.03 0.05,0.03 0.06,0.03 0.05,0.04 0.04,0.04 0.05,0.05 0.03,0.05 0.02,0.03 0.02,0.02 0.02,0.03 0.01,0.03 0.02,0.03 0.01,0.04 0.01,0.03 0.01,0.04 0.01,0.03 0.01,0.04 0.01,0.04 0,0.04 0.01,0.04 0,0.04 0,0.05 0,0.05 c 0,0.99 -0.94,0.99 -1.64,0.99 l -29.84,0 c -0.7,0 -1.64,0 -1.64,-0.99 0,-1 0.94,-1 1.69,-1 z"
           inkscape:connector-curvature="0"
           style="fill:#000000;stroke-width:0" /><path
           id="path13178"
           d="m 529.27,412.62 0.13,0.01 0.14,0 0.14,0 0.07,0.01 0.07,0 0.07,0.01 0.07,0.01 0.07,0.01 0.07,0.01 0.06,0.01 0.07,0.02 0.06,0.02 0.06,0.02 0.06,0.02 0.06,0.03 0.06,0.03 0.05,0.04 0.05,0.04 0.04,0.04 0.05,0.04 0.02,0.03 0.02,0.03 0.01,0.02 0.02,0.03 0.02,0.03 0.01,0.03 0.02,0.03 0.01,0.03 0.01,0.04 0.01,0.03 0.01,0.04 0.01,0.04 0.01,0.04 0,0.04 0.01,0.04 0,0.04 0,0.05 0,0.04 c 0,1 -0.94,1 -1.69,1 l -29.74,0 c -0.75,0 -1.69,0 -1.69,-1 0,-1 0.94,-1 1.64,-1 z"
           inkscape:connector-curvature="0"
           style="fill:#000000;stroke-width:0" /><path
           id="path13180"
           d="m 566.63,436.19 0.04,0.16 0.04,0.16 0.04,0.15 0.04,0.14 0.04,0.14 0.05,0.12 0.04,0.13 0.05,0.11 0.06,0.11 0.06,0.1 0.06,0.1 0.07,0.09 0.08,0.08 0.09,0.08 0.09,0.08 0.11,0.06 0.11,0.07 0.13,0.05 0.14,0.06 0.15,0.05 0.16,0.04 0.09,0.02 0.09,0.02 0.09,0.01 0.1,0.02 0.1,0.02 0.11,0.01 0.11,0.01 0.11,0.02 0.12,0.01 0.12,0.01 0.13,0.01 0.13,0.01 0.14,0.01 0.14,0 0.14,0.01 0.15,0 0.16,0.01 0.16,0 0.16,0 0.18,0.01 0.17,0 0.18,0 c 1.2,0 1.6,0 1.6,0.95 0,0.59 -0.55,0.59 -0.75,0.59 l -13.2,0 c -0.35,0 -1,0 -1,-0.99 0,-0.55 0.45,-0.55 1.4,-0.55 2.09,0 3.44,0 3.44,-0.95 0,-0.25 0,-0.35 -0.1,-0.8 l -6.73,-26.84 c -0.45,-1.85 -0.6,-2.35 -4.53,-2.35 -1.15,0 -1.59,0 -1.59,-0.99 0,-0.55 0.59,-0.55 0.74,-0.55 l 13.2,0 c 0.4,0 1,0 1,0.95 0,0.59 -0.4,0.59 -1.49,0.59 -0.9,0 -1.15,0 -2.15,0.1 -1.04,0.1 -1.24,0.3 -1.24,0.85 0,0.4 0.09,0.8 0.2,1.15 z"
           inkscape:connector-curvature="0"
           style="fill:#000000;stroke-width:0" /><path
           id="path13182"
           d="m 587.99,410.12 0,0.71 -0.02,0.68 -0.03,0.66 -0.04,0.64 -0.06,0.62 -0.08,0.59 -0.09,0.58 -0.11,0.56 -0.12,0.55 -0.15,0.53 -0.17,0.51 -0.19,0.5 -0.21,0.49 -0.24,0.48 -0.26,0.47 -0.14,0.24 -0.15,0.23 c -1.08,1.6 -3.24,2.99 -6.03,2.99 l 0,-0.97 c 1.88,0 3.7,-1.15 4.33,-3.18 0.55,-1.88 0.59,-4.39 0.59,-7.42 0,-2.58 0,-5.17 -0.45,-7.36 -0.7,-3.17 -3.07,-3.94 -4.47,-3.94 l 0,0 c -1.6,0 -3.73,0.94 -4.43,3.8 -0.49,2.06 -0.49,4.92 -0.49,7.5 0,2.54 0,5.19 0.53,7.11 0.73,2.76 2.96,3.49 4.39,3.49 l 0,0.97 c -8.09,0 -8.09,-9.52 -8.09,-12.03 0,-2.51 0,-11.82 8.09,-11.82 8.09,0 8.09,9.31 8.09,11.82 z"
           inkscape:connector-curvature="0"
           style="fill:#000000;stroke-width:0" /><path
           id="path13184"
           d="m 623.38,417.46 13.89,0 c 0.7,0 1.64,0 1.64,0.99 0,1 -0.94,1 -1.64,1 l -13.89,0 0,13.95 c 0,0.69 0,1.64 -1,1.64 -1,0 -1,-0.95 -1,-1.64 l 0,-13.95 -13.95,0 c -0.7,0 -1.64,0 -1.64,-1 0,-0.99 0.94,-0.99 1.64,-0.99 l 13.95,0 0,-13.95 c 0,-0.7 0,-1.64 1,-1.64 1,0 1,0.94 1,1.64 z"
           inkscape:connector-curvature="0"
           style="fill:#000000;stroke-width:0" /><path
           id="path13186"
           d="m 671.63,436.19 0.04,0.16 0.04,0.16 0.04,0.15 0.04,0.14 0.04,0.14 0.05,0.12 0.04,0.13 0.05,0.11 0.06,0.11 0.06,0.1 0.06,0.1 0.07,0.09 0.08,0.08 0.09,0.08 0.09,0.08 0.11,0.06 0.11,0.07 0.13,0.05 0.14,0.06 0.15,0.05 0.16,0.04 0.09,0.02 0.09,0.02 0.09,0.01 0.1,0.02 0.1,0.02 0.11,0.01 0.11,0.01 0.11,0.02 0.12,0.01 0.12,0.01 0.13,0.01 0.13,0.01 0.14,0.01 0.14,0 0.14,0.01 0.15,0 0.16,0.01 0.16,0 0.16,0 0.18,0.01 0.17,0 0.18,0 c 1.2,0 1.6,0 1.6,0.95 0,0.59 -0.55,0.59 -0.75,0.59 l -13.2,0 c -0.35,0 -1,0 -1,-0.99 0,-0.55 0.45,-0.55 1.4,-0.55 2.09,0 3.44,0 3.44,-0.95 0,-0.25 0,-0.35 -0.1,-0.8 l -6.73,-26.84 c -0.45,-1.85 -0.6,-2.35 -4.53,-2.35 -1.15,0 -1.59,0 -1.59,-0.99 0,-0.55 0.59,-0.55 0.74,-0.55 l 13.2,0 c 0.4,0 1,0 1,0.95 0,0.59 -0.4,0.59 -1.49,0.59 -0.9,0 -1.15,0 -2.15,0.1 -1.04,0.1 -1.24,0.3 -1.24,0.85 0,0.4 0.09,0.8 0.2,1.15 z"
           inkscape:connector-curvature="0"
           style="fill:#000000;stroke-width:0" /><path
           id="path13188"
           d="m 684.21,422.15 0,0.01 0,0 0,0 0,0.01 0.01,0.01 0,0 0,0.01 0,0 0.01,0.02 0,0.02 0.01,0.02 0,0.01 0.01,0.02 0,0.03 0.01,0.02 0.01,0.02 0,0.02 0.01,0.03 0.01,0.04 0.01,0.05 0,0.03 0.01,0.02 0,0.02 0.01,0.02 0,0.02 0.01,0.02 0,0.02 0,0.01 0.01,0.01 0,0.01 0,0 0,0.01 0,0.01 0,0 0,0.01 0,0 0,0 0,0.01 0,0 0,0 c 0,0.18 -0.13,0.49 -0.56,0.49 -0.69,0 -3.58,-0.28 -4.46,-0.35 -0.28,-0.03 -0.76,-0.07 -0.76,-0.8 0,-0.49 0.48,-0.49 0.91,-0.49 1.67,0 1.67,-0.24 1.67,-0.52 0,-0.25 -0.35,-1.64 -0.56,-2.44 l -0.8,-3.21 c -0.31,-1.19 -2.23,-8.82 -2.3,-9.28 -0.18,-0.83 -0.18,-1.29 -0.18,-1.7 0,-3.53 2.23,-5.76 5.13,-5.76 l 0.03,0.98 c -1.71,0 -2.68,1.5 -2.68,3.55 0,1.29 0.31,2.48 1.29,6.42 0.21,0.66 0.21,0.73 0.87,1.5 1.33,1.53 2.89,2.3 4.15,2.3 1.36,0 2.54,-1.01 2.54,-3.38 0,-1.43 -0.76,-4.99 -1.81,-7.01 -0.84,-1.71 -2.58,-3.38 -4.36,-3.38 l 0,0 -0.03,-0.98 c 4.35,0 8.99,4.74 8.99,9.9 0,4.08 -2.82,5.83 -5.23,5.83 -1.81,0 -3.35,-1.01 -4.39,-1.92 z"
           inkscape:connector-curvature="0"
           style="fill:#000000;stroke-width:0" /><path
           id="path13190"
           d="m 699.81,406.95 0.1,0 0.11,0 0.11,0 0.13,0 0.13,0.01 0.14,0 0.15,0 0.16,0.01 0.16,0.01 0.17,0.01 0.17,0.01 0.18,0.01 0.18,0.01 0.19,0.01 0.39,0.04 0.39,0.04 0.41,0.05 0.41,0.06 0.4,0.07 0.4,0.08 0.2,0.04 0.19,0.05 0.2,0.05 0.18,0.06 0.19,0.05 0.18,0.06 c 2.57,0.91 3.06,2.58 3.06,3.63 0,1.92 -1.92,3.07 -4.32,3.07 l 0,-0.98 c 1.53,0 2.82,-0.77 2.82,-2.09 0,-3.38 -5.89,-3.38 -7.39,-3.38 l -1.7,0 c 1.42,5.05 5.29,5.47 6.27,5.47 l 0,0.98 c -4.19,0 -9.83,-3.21 -9.83,-9.17 0,-3.53 2.19,-6.56 6.27,-6.56 5.89,0 8.65,3.45 8.65,3.94 0,0.21 -0.31,0.59 -0.59,0.59 -0.21,0 -0.28,-0.07 -0.56,-0.34 -2.72,-3.21 -6.8,-3.21 -7.43,-3.21 -2.09,0 -3.48,1.39 -3.48,4.22 0,0.49 0,1.18 0.41,3.1 z"
           inkscape:connector-curvature="0"
           style="fill:#000000;stroke-width:0" /><path
           id="path13192"
           d="m 725.72,412.32 -0.07,0.11 -0.08,0.1 -0.07,0.11 -0.08,0.1 -0.08,0.1 -0.08,0.1 -0.09,0.09 -0.09,0.1 -0.09,0.09 -0.09,0.09 -0.1,0.08 -0.1,0.09 -0.1,0.08 -0.11,0.07 -0.11,0.08 -0.11,0.07 -0.11,0.07 -0.12,0.06 -0.12,0.06 -0.12,0.06 -0.12,0.05 -0.13,0.05 -0.13,0.05 -0.13,0.04 -0.14,0.04 -0.14,0.03 -0.14,0.02 -0.14,0.03 -0.15,0.02 -0.15,0.01 -0.15,0.01 -0.16,0 0,-0.98 c 2.44,0 3.11,-2.65 3.11,-3.03 0,-0.14 -0.07,-0.39 -0.11,-0.49 l -1.64,-6.52 c -0.24,-0.98 -1.01,-1.68 -1.78,-2.34 -0.31,-0.28 -1.7,-1.39 -3.2,-1.39 -1.29,0 -2.55,0.91 -2.55,3.38 0,1.85 1.01,5.69 1.82,7.08 1.6,2.79 3.38,3.31 4.35,3.31 l 0,0.98 c -4.46,0 -8.99,-4.92 -8.99,-9.94 0,-3.38 2.27,-5.79 5.26,-5.79 1.88,0 3.56,1.08 4.95,2.44 0.67,-2.09 2.69,-2.44 3.59,-2.44 1.26,0 2.13,0.77 2.76,1.85 0.77,1.36 1.22,3.35 1.22,3.48 0,0.46 -0.45,0.46 -0.56,0.46 -0.49,0 -0.52,-0.14 -0.76,-1.08 -0.42,-1.68 -1.09,-3.73 -2.55,-3.73 -0.91,0 -1.15,0.76 -1.15,1.71 0,0.59 0.28,1.84 0.52,2.75 0.25,0.94 0.59,2.37 0.77,3.14 l 0.7,2.65 c 0.21,0.91 0.62,2.55 0.62,2.72 0,0.77 -0.62,1.11 -1.18,1.11 -0.59,0 -1.39,-0.41 -1.6,-1.39 z"
           inkscape:connector-curvature="0"
           style="fill:#000000;stroke-width:0" /><path
           id="path13194"
           d="m 741.58,412.77 3.55,0 c 0.67,0 1.12,0 1.12,0.77 0,0.49 -0.45,0.49 -1.05,0.49 l -3.31,0 1.29,5.16 c 0.04,0.17 0.1,0.35 0.1,0.49 0,0.62 -0.48,1.11 -1.18,1.11 -0.87,0 -1.39,-0.59 -1.64,-1.5 -0.24,-0.87 0.21,0.81 -1.32,-5.26 l -3.56,0 c -0.66,0 -1.11,0 -1.11,-0.77 0,-0.49 0.41,-0.49 1.04,-0.49 l 3.31,0 -2.05,-8.23 c -0.21,-0.87 -0.53,-2.12 -0.53,-2.58 0,-2.05 1.74,-3.31 3.73,-3.31 3.87,0 6.07,4.88 6.07,5.33 0,0.46 -0.45,0.46 -0.56,0.46 -0.41,0 -0.45,-0.07 -0.73,-0.66 -0.98,-2.2 -2.75,-4.15 -4.67,-4.15 -0.73,0 -1.22,0.45 -1.22,1.71 0,0.34 0.14,1.08 0.21,1.43 z"
           inkscape:connector-curvature="0"
           style="fill:#000000;stroke-width:0" /><path
           id="path13196"
           d="m 764.83,416.86 0,0.38 0.01,0.36 0.01,0.36 0.02,0.35 0.03,0.34 0.03,0.34 0.04,0.32 0.04,0.32 0.05,0.31 0.05,0.3 0.05,0.29 0.06,0.29 0.14,0.54 0.15,0.52 0.16,0.49 0.19,0.46 0.19,0.43 0.21,0.4 0.22,0.37 0.23,0.35 0.24,0.33 0.25,0.3 0.26,0.28 0.26,0.25 0.27,0.23 0.28,0.21 0.27,0.19 0.28,0.17 0.29,0.15 0.28,0.13 0.28,0.11 0.28,0.09 0.28,0.08 0.28,0.06 0.27,0.05 0.26,0.03 0.26,0.02 0.25,0.01 c 0.45,0 3.59,-0.05 5.33,-1.84 -2.04,-0.15 -2.34,-1.64 -2.34,-2.29 0,-1.3 0.9,-2.3 2.29,-2.3 1.3,0 2.29,0.85 2.29,2.34 0,3.4 -3.78,5.34 -7.62,5.34 -6.22,0 -10.8,-5.38 -10.8,-11.56 0,-6.38 4.92,-11.31 10.7,-11.31 6.68,0 8.27,5.98 8.27,6.48 0,0.5 -0.49,0.5 -0.65,0.5 -0.44,0 -0.54,-0.2 -0.64,-0.5 -1.45,-4.63 -4.68,-5.23 -6.53,-5.23 -2.64,0 -7.02,2.14 -7.02,10.16 z"
           inkscape:connector-curvature="0"
           style="fill:#000000;stroke-width:0" /><path
           id="path13198"
           d="m 804.46,416.66 -0.01,0.59 -0.05,0.59 -0.07,0.58 -0.09,0.57 -0.13,0.56 -0.15,0.55 -0.17,0.54 -0.2,0.53 -0.22,0.52 -0.25,0.5 -0.26,0.49 -0.29,0.47 -0.31,0.46 -0.33,0.44 -0.35,0.42 -0.36,0.41 -0.39,0.39 -0.4,0.36 -0.41,0.35 -0.44,0.33 -0.44,0.3 -0.46,0.29 -0.48,0.26 -0.48,0.23 -0.5,0.21 -0.51,0.19 -0.52,0.16 -0.53,0.13 -0.54,0.1 -0.55,0.08 -0.56,0.04 -0.56,0.02 -0.05,-1.1 c 2.19,0 4.34,-1.1 5.63,-3.24 1.3,-2.14 1.3,-5.03 1.3,-6.92 0,-1.79 0,-4.49 -1.1,-6.68 -1.09,-2.24 -3.28,-3.68 -5.78,-3.68 l 0,0 c -2.14,0 -4.33,1.04 -5.68,3.34 -1.24,2.19 -1.24,5.23 -1.24,7.02 0,1.94 0,4.63 1.2,6.82 1.34,2.3 3.68,3.34 5.67,3.34 l 0.05,1.1 c -6.22,0 -11.05,-5.43 -11.05,-11.66 0,-6.43 5.17,-11.21 11,-11.21 6.03,0 11.06,4.88 11.06,11.21 z"
           inkscape:connector-curvature="0"
           style="fill:#000000;stroke-width:0" /><path
           id="path13200"
           d="m 816.36,415.66 0.11,-0.02 0.13,-0.02 0.14,-0.03 0.16,-0.03 0.17,-0.04 0.18,-0.05 0.18,-0.05 0.2,-0.05 0.21,-0.06 0.21,-0.07 0.21,-0.08 0.22,-0.09 0.22,-0.09 0.22,-0.1 0.22,-0.12 0.22,-0.12 0.22,-0.13 0.21,-0.14 0.2,-0.15 0.2,-0.16 0.19,-0.18 0.18,-0.19 0.17,-0.2 0.16,-0.21 0.14,-0.22 0.07,-0.12 0.06,-0.12 0.06,-0.13 0.05,-0.12 0.05,-0.13 0.05,-0.14 0.04,-0.14 0.03,-0.14 0.03,-0.15 0.03,-0.15 0.02,-0.15 0.01,-0.16 0.01,-0.16 0,-0.17 c 0,-2.54 -1.74,-4.53 -5.63,-4.53 -4.18,0 -5.98,2.84 -6.92,7.07 -0.15,0.65 -0.2,0.85 -0.7,0.85 -0.64,0 -0.64,-0.35 -0.64,-1.25 l 0,-6.57 c 0,-0.85 0,-1.2 0.54,-1.2 0.25,0 0.3,0.05 1.25,1 0.09,0.1 0.09,0.2 0.99,1.14 2.19,-2.09 4.44,-2.14 5.48,-2.14 5.73,0 8.02,3.34 8.02,6.93 0,2.64 -1.49,4.13 -2.09,4.73 -1.64,1.59 -3.59,1.99 -5.68,2.39 -2.79,0.55 -6.13,1.2 -6.13,4.09 0,1.74 1.3,3.78 5.58,3.78 5.48,0 5.73,-4.48 5.83,-6.03 0.05,-0.45 0.5,-0.45 0.6,-0.45 0.65,0 0.65,0.25 0.65,1.2 l 0,5.03 c 0,0.85 0,1.2 -0.55,1.2 -0.25,0 -0.35,0 -0.99,-0.6 -0.16,-0.2 -0.65,-0.65 -0.85,-0.8 -1.9,1.4 -3.94,1.4 -4.69,1.4 -6.08,0 -7.96,-3.34 -7.96,-6.13 0,-1.74 0.79,-3.14 2.13,-4.23 1.6,-1.3 2.99,-1.6 6.58,-2.3 z"
           inkscape:connector-curvature="0"
           style="fill:#000000;stroke-width:0" /><path
           id="path13202"
           d="m 848.1,436.73 0,0.19 0.01,0.2 0.02,0.2 0.03,0.21 0.04,0.21 0.05,0.21 0.06,0.22 0.07,0.22 0.09,0.22 0.09,0.22 0.11,0.22 0.12,0.22 0.14,0.21 0.15,0.22 0.16,0.21 0.18,0.21 0.2,0.2 0.21,0.19 0.23,0.19 0.25,0.19 0.26,0.17 0.29,0.17 0.3,0.16 0.32,0.14 0.34,0.14 0.36,0.13 0.39,0.11 0.4,0.1 0.21,0.04 0.22,0.05 0.22,0.03 0.23,0.04 0.23,0.03 0.24,0.02 0.25,0.03 0.25,0.02 c 0.25,0.04 0.45,0.24 0.45,0.54 0,0.55 -0.4,0.55 -0.95,0.55 -4.98,0 -9.51,-2.54 -9.56,-6.23 l 0,-11.35 c 0,-1.95 0,-3.54 -1.99,-5.19 -1.75,-1.44 -3.64,-1.54 -4.74,-1.59 -0.25,-0.05 -0.44,-0.25 -0.44,-0.55 0,-0.49 0.3,-0.49 0.79,-0.54 3.29,-0.2 5.68,-2 6.23,-4.44 0.15,-0.54 0.15,-0.65 0.15,-2.44 l 0,-9.86 c 0,-2.1 0,-3.69 2.39,-5.58 1.94,-1.5 5.23,-2.04 7.17,-2.04 0.55,0 0.95,0 0.95,0.54 0,0.5 -0.3,0.5 -0.8,0.55 -3.13,0.2 -5.57,1.8 -6.22,4.34 -0.15,0.45 -0.15,0.54 -0.15,2.34 l 0,10.46 c 0,2.29 -0.4,3.14 -2,4.73 -1.04,1.04 -2.49,1.54 -3.88,1.94 4.08,1.15 5.88,3.44 5.88,6.33 z"
           inkscape:connector-curvature="0"
           style="fill:#000000;stroke-width:0" /><path
           id="path13204"
           d="m 875.49,394.04 0,0.03 0,0.03 -0.01,0.01 0,0.02 0,0.01 -0.01,0.02 0,0.02 -0.01,0.01 -0.01,0.02 -0.01,0.02 -0.01,0.03 -0.01,0.02 -0.02,0.02 -0.02,0.03 -0.02,0.03 -0.02,0.03 -0.03,0.03 -0.03,0.04 -0.01,0.02 -0.02,0.02 -0.02,0.02 -0.02,0.02 -0.02,0.02 -0.02,0.03 -0.02,0.02 -0.02,0.02 -0.02,0.03 -0.03,0.02 -0.02,0.03 -0.03,0.03 -0.02,0.03 -0.03,0.03 -0.03,0.03 -0.03,0.03 -0.03,0.03 -0.03,0.03 -0.04,0.04 -0.03,0.03 -0.04,0.04 -0.03,0.03 -0.04,0.04 -0.04,0.04 c -6.23,6.28 -7.82,15.69 -7.82,23.31 0,8.67 1.9,17.34 8.02,23.57 0.65,0.59 0.65,0.69 0.65,0.84 0,0.35 -0.2,0.5 -0.5,0.5 -0.5,0 -4.98,-3.39 -7.92,-9.72 -2.54,-5.47 -3.14,-11 -3.14,-15.19 0,-3.88 0.55,-9.91 3.29,-15.54 2.99,-6.12 7.27,-9.36 7.77,-9.36 0.3,0 0.5,0.15 0.5,0.49 z"
           inkscape:connector-curvature="0"
           style="fill:#000000;stroke-width:0" /><path
           id="path13206"
           d="m 908.14,424.53 -0.01,0.21 0,0.2 -0.02,0.2 -0.01,0.18 -0.03,0.19 -0.02,0.18 -0.03,0.17 -0.04,0.16 -0.04,0.16 -0.04,0.15 -0.05,0.15 -0.05,0.14 -0.06,0.13 -0.06,0.13 -0.06,0.12 -0.07,0.11 -0.07,0.11 -0.07,0.1 -0.07,0.1 -0.08,0.08 -0.08,0.09 -0.09,0.07 -0.08,0.07 -0.09,0.06 -0.09,0.05 -0.09,0.05 -0.1,0.04 -0.09,0.03 -0.1,0.02 -0.1,0.02 -0.1,0.01 -0.1,0.01 c -1.3,0 -2.65,-1.2 -2.65,-2.34 0,-0.5 0.25,-1.05 0.75,-1.5 0.85,-0.75 1.75,-2.09 1.75,-4.18 0,-2 -0.95,-4.84 -2.5,-7.12 -1.49,-2.15 -3.33,-3.84 -5.68,-3.84 -2.84,0 -4.38,1.79 -4.83,4.48 0.55,1.3 1.7,4.48 1.7,5.88 0,0.6 -0.25,1.1 -0.9,1.1 -0.4,0 -0.95,-0.11 -1.34,-0.85 -0.55,-1 -1.15,-4.24 -1.15,-6.03 -1.64,-2.34 -3.64,-4.58 -6.77,-4.58 -3.29,0 -4.34,2.94 -4.34,5.73 0,6.22 5.08,11.45 5.08,12.1 0,0.55 -0.39,0.95 -0.94,0.95 -0.65,0 -1,-0.65 -1.3,-1.1 -2.54,-3.68 -4.43,-9.61 -4.43,-14.15 0,-3.43 1.14,-7.12 5.23,-7.12 3.53,0 5.88,2.49 7.67,5.23 0.45,-2.89 2.39,-5.23 5.48,-5.23 3.88,0 6.27,3.04 8.07,6.78 1.19,2.44 3.09,9.21 3.09,12.3 z"
           inkscape:connector-curvature="0"
           style="fill:#000000;stroke-width:0" /><path
           id="path13208"
           d="m 923.72,412.32 -0.07,0.11 -0.08,0.1 -0.07,0.11 -0.08,0.1 -0.08,0.1 -0.08,0.1 -0.09,0.09 -0.09,0.1 -0.09,0.09 -0.09,0.09 -0.1,0.08 -0.1,0.09 -0.1,0.08 -0.11,0.07 -0.11,0.08 -0.11,0.07 -0.11,0.07 -0.12,0.06 -0.12,0.06 -0.12,0.06 -0.12,0.05 -0.13,0.05 -0.13,0.05 -0.13,0.04 -0.14,0.04 -0.14,0.03 -0.14,0.02 -0.14,0.03 -0.15,0.02 -0.15,0.01 -0.15,0.01 -0.16,0 0,-0.98 c 2.44,0 3.11,-2.65 3.11,-3.03 0,-0.14 -0.07,-0.39 -0.11,-0.49 l -1.64,-6.52 c -0.24,-0.98 -1.01,-1.68 -1.78,-2.34 -0.31,-0.28 -1.7,-1.39 -3.2,-1.39 -1.29,0 -2.55,0.91 -2.55,3.38 0,1.85 1.01,5.69 1.82,7.08 1.6,2.79 3.38,3.31 4.35,3.31 l 0,0.98 c -4.46,0 -8.99,-4.92 -8.99,-9.94 0,-3.38 2.27,-5.79 5.26,-5.79 1.88,0 3.56,1.08 4.95,2.44 0.67,-2.09 2.69,-2.44 3.59,-2.44 1.26,0 2.13,0.77 2.76,1.85 0.77,1.36 1.22,3.35 1.22,3.48 0,0.46 -0.45,0.46 -0.56,0.46 -0.49,0 -0.52,-0.14 -0.76,-1.08 -0.42,-1.68 -1.09,-3.73 -2.55,-3.73 -0.91,0 -1.15,0.76 -1.15,1.71 0,0.59 0.28,1.84 0.52,2.75 0.25,0.94 0.59,2.37 0.77,3.14 l 0.7,2.65 c 0.21,0.91 0.62,2.55 0.62,2.72 0,0.77 -0.62,1.11 -1.18,1.11 -0.59,0 -1.39,-0.41 -1.6,-1.39 z"
           inkscape:connector-curvature="0"
           style="fill:#000000;stroke-width:0" /><path
           id="path13210"
           d="m 976.83,417.46 0.16,0 0.16,0 0.15,0 0.08,0.01 0.08,0 0.07,0.01 0.08,0.01 0.07,0.01 0.07,0.01 0.07,0.01 0.07,0.02 0.06,0.02 0.07,0.02 0.06,0.03 0.05,0.02 0.06,0.04 0.05,0.03 0.05,0.04 0.05,0.04 0.04,0.05 0.04,0.05 0.01,0.02 0.02,0.03 0.02,0.03 0.01,0.03 0.02,0.03 0.01,0.04 0.01,0.03 0.01,0.03 0.01,0.04 0.01,0.04 0,0.04 0.01,0.04 0,0.04 0.01,0.04 0,0.05 0,0.04 c 0,1 -0.9,1 -1.74,1 l -26.95,0 c -0.85,0 -1.75,0 -1.75,-1 0,-0.99 0.9,-0.99 1.75,-0.99 z"
           inkscape:connector-curvature="0"
           style="fill:#000000;stroke-width:0" /><path
           id="path13212"
           d="m 1024.1,424.53 0,0.21 0,0.2 0,0.2 0,0.18 0,0.19 -0.1,0.18 0,0.17 0,0.16 -0.1,0.16 0,0.15 -0.1,0.15 0,0.14 -0.1,0.13 0,0.13 -0.1,0.12 0,0.11 -0.1,0.11 -0.1,0.1 -0.1,0.1 0,0.08 -0.1,0.09 -0.1,0.07 -0.1,0.07 -0.1,0.06 -0.1,0.05 -0.1,0.05 -0.1,0.04 -0.1,0.03 -0.1,0.02 -0.1,0.02 -0.1,0.01 -0.1,0.01 c -1.3,0 -2.6,-1.2 -2.6,-2.34 0,-0.5 0.3,-1.05 0.7,-1.5 0.9,-0.75 1.8,-2.09 1.8,-4.18 0,-2 -1,-4.84 -2.5,-7.12 -1.5,-2.15 -3.3,-3.84 -5.7,-3.84 -2.8,0 -4.4,1.79 -4.8,4.48 0.5,1.3 1.7,4.48 1.7,5.88 0,0.6 -0.3,1.1 -0.9,1.1 -0.4,0 -1,-0.11 -1.3,-0.85 -0.6,-1 -1.2,-4.24 -1.2,-6.03 -1.6,-2.34 -3.6,-4.58 -6.8,-4.58 -3.26,0 -4.31,2.94 -4.31,5.73 0,6.22 5.11,11.45 5.11,12.1 0,0.55 -0.4,0.95 -1,0.95 -0.62,0 -0.97,-0.65 -1.27,-1.1 -2.54,-3.68 -4.43,-9.61 -4.43,-14.15 0,-3.43 1.14,-7.12 5.23,-7.12 3.57,0 5.87,2.49 7.67,5.23 0.5,-2.89 2.4,-5.23 5.5,-5.23 3.9,0 6.2,3.04 8,6.78 1.2,2.44 3.1,9.21 3.1,12.3 z"
           inkscape:connector-curvature="0"
           style="fill:#000000;stroke-width:0" /><path
           id="path13214"
           d="m 1034.2,422.15 0,0.01 0,0 0,0 0,0.01 0,0.01 0,0 0,0.01 0,0 0,0.02 0,0.02 0,0.02 0,0.01 0,0.02 0.1,0.03 0,0.02 0,0.02 0,0.02 0,0.03 0,0.04 0,0.05 0,0.03 0,0.02 0,0.02 0,0.02 0,0.02 0,0.02 0,0.02 0,0.01 0,0.01 0,0.01 0,0 0,0.01 0,0.01 0,0 0,0.01 0,0 0,0 0,0.01 0,0 0,0 c 0,0.18 -0.1,0.49 -0.5,0.49 -0.7,0 -3.6,-0.28 -4.5,-0.35 -0.3,-0.03 -0.7,-0.07 -0.7,-0.8 0,-0.49 0.4,-0.49 0.9,-0.49 1.6,0 1.6,-0.24 1.6,-0.52 0,-0.25 -0.3,-1.64 -0.5,-2.44 l -0.8,-3.21 c -0.3,-1.19 -2.2,-8.82 -2.3,-9.28 -0.2,-0.83 -0.2,-1.29 -0.2,-1.7 0,-3.53 2.2,-5.76 5.1,-5.76 l 0.1,0.98 c -1.7,0 -2.7,1.5 -2.7,3.55 0,1.29 0.3,2.48 1.3,6.42 0.2,0.66 0.2,0.73 0.8,1.5 1.4,1.53 2.9,2.3 4.2,2.3 1.3,0 2.5,-1.01 2.5,-3.38 0,-1.43 -0.7,-4.99 -1.8,-7.01 -0.8,-1.71 -2.6,-3.38 -4.3,-3.38 l 0,0 -0.1,-0.98 c 4.4,0 9,4.74 9,9.9 0,4.08 -2.8,5.83 -5.2,5.83 -1.8,0 -3.4,-1.01 -4.4,-1.92 z"
           inkscape:connector-curvature="0"
           style="fill:#000000;stroke-width:0" /><path
           id="path13216"
           d="m 1059.4,418.45 0,0.37 0,0.39 0,0.39 0,0.41 -0.1,0.84 0,0.88 -0.1,0.92 -0.1,0.94 -0.2,0.98 -0.1,1 -0.2,1.02 -0.2,1.04 -0.3,1.05 -0.3,1.06 -0.4,1.06 -0.4,1.07 -0.2,0.53 -0.2,0.54 -0.2,0.53 -0.3,0.53 c -3,6.12 -7.3,9.36 -7.8,9.36 -0.3,0 -0.5,-0.2 -0.5,-0.5 0,-0.15 0,-0.25 1,-1.15 4.9,-4.92 7.7,-12.85 7.7,-23.26 0,-8.52 -1.8,-17.28 -8,-23.56 -0.7,-0.6 -0.7,-0.69 -0.7,-0.85 0,-0.29 0.2,-0.49 0.5,-0.49 0.5,0 5,3.38 8,9.71 2.5,5.48 3.1,11.01 3.1,15.19 z"
           inkscape:connector-curvature="0"
           style="fill:#000000;stroke-width:0" /><path
           id="path13218"
           d="m 1074.3,425.93 4.6,0 c 1,0 1.5,0 1.5,0.99 0,0.55 -0.5,0.55 -1.4,0.55 l -4.3,0 c 1.7,7.07 2,8.07 2,8.37 0,0.84 -0.6,1.34 -1.4,1.34 -0.2,0 -1.6,-0.05 -2,-1.79 l -2,-7.92 -4.7,0 c -1,0 -1.5,0 -1.5,-0.95 0,-0.59 0.4,-0.59 1.4,-0.59 l 4.4,0 c -3.6,-14.15 -3.8,-15 -3.8,-15.89 0,-2.7 1.9,-4.59 4.6,-4.59 5.1,0 7.9,7.28 7.9,7.67 0,0.5 -0.4,0.5 -0.6,0.5 -0.4,0 -0.4,-0.15 -0.7,-0.69 -2.1,-5.19 -4.8,-6.38 -6.5,-6.38 -1,0 -1.5,0.65 -1.5,2.29 0,1.2 0.1,1.54 0.3,2.39 z"
           inkscape:connector-curvature="0"
           style="fill:#000000;stroke-width:0" /><path
           id="path13220"
           d="m 1092.8,400.17 0,-0.19 -0.1,-0.19 0,-0.21 0,-0.2 0,-0.21 -0.1,-0.22 -0.1,-0.21 0,-0.22 -0.1,-0.22 -0.1,-0.22 -0.1,-0.22 -0.1,-0.22 -0.2,-0.22 -0.1,-0.21 -0.2,-0.21 -0.2,-0.21 -0.2,-0.2 -0.2,-0.2 -0.2,-0.19 -0.3,-0.18 -0.2,-0.17 -0.3,-0.17 -0.3,-0.16 -0.3,-0.15 -0.4,-0.13 -0.3,-0.13 -0.4,-0.11 -0.4,-0.1 -0.2,-0.04 -0.2,-0.05 -0.3,-0.03 -0.2,-0.04 -0.2,-0.03 -0.3,-0.02 -0.2,-0.03 -0.3,-0.02 c -0.2,-0.05 -0.4,-0.25 -0.4,-0.55 0,-0.54 0.5,-0.54 1,-0.54 4.8,0 9.5,2.44 9.5,6.22 l 0,11.36 c 0,1.94 0,3.54 2,5.18 1.7,1.45 3.6,1.55 4.7,1.6 0.3,0.05 0.5,0.25 0.5,0.54 0,0.5 -0.3,0.5 -0.8,0.55 -3.3,0.2 -5.7,1.99 -6.3,4.43 -0.1,0.55 -0.1,0.65 -0.1,2.45 l 0,9.86 c 0,2.09 0,3.69 -2.4,5.58 -2,1.54 -5.4,2.04 -7.1,2.04 -0.5,0 -1,0 -1,-0.55 0,-0.5 0.3,-0.5 0.8,-0.54 3.1,-0.2 5.6,-1.8 6.2,-4.34 0.2,-0.45 0.2,-0.55 0.2,-2.34 l 0,-10.46 c 0,-2.29 0.4,-3.14 2,-4.74 1,-1.04 2.4,-1.54 3.8,-1.94 -4,-1.14 -5.8,-3.43 -5.8,-6.32 z"
           inkscape:connector-curvature="0"
           style="fill:#000000;stroke-width:0" /></g>    </g>
  </g>
</svg>
